<svg width="12" height="12" viewBox="0 0 12 12" fill="none" xmlns="http://www.w3.org/2000/svg">
<path d="M5.73483 1.9205C5.88128 1.77406 6.11872 1.77406 6.26516 1.9205L10.6098 6.26517C10.7563 6.41162 10.9937 6.41162 11.1402 6.26517C11.2866 6.11873 11.2866 5.88129 11.1402 5.73484L6.7955 1.39017C6.35615 0.950833 5.64384 0.950835 5.2045 1.39017L0.859835 5.73484C0.713388 5.88129 0.713388 6.11873 0.859835 6.26517C1.00628 6.41162 1.24372 6.41162 1.39017 6.26517L5.73483 1.9205Z" fill="#677489"/>
<path d="M6 2.716L10.0795 6.7955C10.0944 6.81036 10.1095 6.82472 10.125 6.83858V9.93751C10.125 10.4553 9.70527 10.875 9.1875 10.875H7.5C7.29289 10.875 7.125 10.7071 7.125 10.5V8.25001C7.125 8.0429 6.95711 7.87501 6.75 7.87501H5.25C5.04289 7.87501 4.875 8.0429 4.875 8.25001V10.5C4.875 10.7071 4.70711 10.875 4.5 10.875H2.8125C2.29473 10.875 1.875 10.4553 1.875 9.93751V6.83858C1.89046 6.82472 1.90564 6.81036 1.9205 6.7955L6 2.716Z" fill="#677489"/>
</svg>
