<svg width="96" height="28" viewBox="0 0 96 28" fill="none" xmlns="http://www.w3.org/2000/svg">
<path d="M18.3014 14.0405C18.3014 12.8398 17.8196 11.6883 16.962 10.8392C16.1044 9.99022 14.9413 9.51324 13.7285 9.51324H9.14732V11.241C9.14732 11.9832 9.4451 12.6949 9.97515 13.2196C10.5052 13.7444 11.2241 14.0391 11.9737 14.0391H12.2997C12.4851 14.0391 12.6688 14.0753 12.8402 14.1456C13.0116 14.2159 13.1673 14.3189 13.2984 14.4487C13.4296 14.5786 13.5336 14.7327 13.6046 14.9024C13.6756 15.0721 13.7122 15.2539 13.7122 15.4375V15.7656C13.7125 16.507 14.0101 17.218 14.5395 17.7423C15.0689 18.2667 15.7869 18.5617 16.5358 18.5624H18.3014V14.0405Z" fill="#00DE9C"/>
<path d="M22.8527 9.51037H22.8663C22.2656 9.51037 21.6709 9.39323 21.1159 9.16563C20.561 8.93803 20.0569 8.60443 19.6322 8.1839C19.2075 7.76336 18.8707 7.26412 18.641 6.71469C18.4113 6.16527 18.2931 5.57642 18.2933 4.98178C18.2933 3.78108 17.8115 2.62955 16.9539 1.78053C16.0963 0.931505 14.9331 0.454529 13.7203 0.454529C12.5075 0.454529 11.3443 0.931505 10.4867 1.78053C9.62912 2.62955 9.14732 3.78108 9.14732 4.98178V9.08279H13.7285C15.0541 9.08457 16.3249 9.60678 17.2621 10.5349C18.1993 11.463 18.7265 12.7212 18.7279 14.0336V18.5622H22.8527C24.0655 18.5622 25.2287 18.0852 26.0863 17.2362C26.9439 16.3872 27.4257 15.2356 27.4257 14.0349C27.4257 12.8342 26.9439 11.6827 26.0863 10.8337C25.2287 9.98466 24.0655 9.50768 22.8527 9.50768V9.51037Z" fill="#00DE9C"/>
<path d="M16.5358 18.9873C15.6736 18.9855 14.8473 18.6456 14.2377 18.0421C13.628 17.4386 13.2848 16.6205 13.283 15.767V15.4362C13.2819 15.1779 13.1776 14.9305 12.9928 14.7481C12.808 14.5656 12.5579 14.463 12.2969 14.4627H11.9696C11.1065 14.4606 10.2795 14.1196 9.66997 13.5147C9.06043 12.9097 8.71813 12.0901 8.71813 11.2357V9.51324H4.57298C3.36015 9.51324 2.19699 9.99022 1.33939 10.8392C0.481794 11.6883 0 12.8398 0 14.0405C0 15.2412 0.481794 16.3927 1.33939 17.2417C2.19699 18.0908 3.36015 18.5677 4.57298 18.5677H4.58113C5.18171 18.5676 5.77644 18.6845 6.33134 18.912C6.88624 19.1395 7.39043 19.4729 7.81511 19.8934C8.23979 20.3138 8.57662 20.8129 8.80637 21.3623C9.03612 21.9116 9.15429 22.5004 9.15411 23.095C9.17478 24.2824 9.66573 25.4142 10.5212 26.2466C11.3767 27.0791 12.5282 27.5456 13.7278 27.5456C14.9273 27.5456 16.0788 27.0791 16.9343 26.2466C17.7898 25.4142 18.2808 24.2824 18.3014 23.095V18.9873H16.5358Z" fill="#00DE9C"/>
<path d="M31.9972 9.51559C31.391 9.51559 30.8096 9.27717 30.3809 8.85279C29.9523 8.4284 29.7114 7.85281 29.7114 7.25264C29.7114 6.65247 29.9523 6.07688 30.3809 5.65249C30.8096 5.2281 31.391 4.98969 31.9972 4.98969H45.7148C46.3211 4.98969 46.9025 5.2281 47.3311 5.65249C47.7598 6.07688 48.0006 6.65247 48.0006 7.25264C48.0006 7.85281 47.7598 8.4284 47.3311 8.85279C46.9025 9.27717 46.3211 9.51559 45.7148 9.51559H41.734C41.5826 9.51595 41.4375 9.57574 41.3306 9.68186C41.2236 9.78798 41.1636 9.93176 41.1636 10.0817V20.7779C41.171 21.0798 41.1174 21.3801 41.0058 21.6612C40.8942 21.9423 40.727 22.1984 40.5139 22.4146C40.3009 22.6307 40.0463 22.8024 39.7652 22.9197C39.4841 23.037 39.1821 23.0974 38.8771 23.0974C38.572 23.0974 38.2701 23.037 37.989 22.9197C37.7079 22.8024 37.4533 22.6307 37.2402 22.4146C37.0272 22.1984 36.8599 21.9423 36.7484 21.6612C36.6368 21.3801 36.5832 21.0798 36.5906 20.7779C36.5906 20.591 36.5906 10.0817 36.5906 10.0817C36.5906 10.0073 36.5758 9.93372 36.5471 9.86504C36.5183 9.79636 36.4762 9.73395 36.4231 9.68139C36.37 9.62882 36.307 9.58713 36.2376 9.55868C36.1682 9.53023 36.0939 9.51559 36.0188 9.51559H31.9972Z" fill="#00DE9C"/>
<path d="M50.2824 20.833C50.2824 21.1301 50.3415 21.4243 50.4564 21.6988C50.5713 21.9733 50.7397 22.2227 50.952 22.4327C51.1643 22.6427 51.4163 22.8093 51.6936 22.9229C51.9709 23.0364 52.2681 23.0948 52.5682 23.0946H61.6992C62.2956 23.0802 62.8627 22.8356 63.2794 22.4129C63.6961 21.9902 63.9293 21.423 63.9293 20.8324C63.9293 20.2417 63.6961 19.6745 63.2794 19.2518C62.8627 18.8291 62.2956 18.5845 61.6992 18.5701H55.4068C55.2555 18.5701 55.1104 18.5106 55.0034 18.4047C54.8965 18.2988 54.8364 18.1551 54.8364 18.0053V7.24859C54.8438 6.94686 54.7902 6.64671 54.6787 6.3658C54.5672 6.0849 54.4001 5.82891 54.1871 5.61291C53.9742 5.3969 53.7198 5.22525 53.4388 5.10805C53.1579 4.99086 52.8561 4.93048 52.5512 4.93048C52.2464 4.93048 51.9446 4.99086 51.6636 5.10805C51.3827 5.22525 51.1283 5.3969 50.9153 5.61291C50.7024 5.82891 50.5353 6.0849 50.4238 6.3658C50.3123 6.64671 50.2587 6.94686 50.2661 7.24859L50.2824 20.833Z" fill="#00DE9C"/>
<path d="M77.7176 9.5235C77.3469 9.5233 76.9817 9.61258 76.6537 9.78362C76.3256 9.95465 76.0447 10.2023 75.8351 10.5051C74.8707 9.86555 73.7363 9.52351 72.5755 9.52216C69.1054 9.52216 66.2926 12.5609 66.2926 16.3083C66.2926 20.0557 69.1054 23.0945 72.5755 23.0945C73.7363 23.0931 74.8707 22.7511 75.8351 22.1116C76.111 22.5097 76.5083 22.81 76.9689 22.9685C77.4296 23.127 77.9293 23.1354 78.3951 22.9925C78.8609 22.8496 79.2683 22.5629 79.5577 22.1743C79.8471 21.7857 80.0032 21.3157 80.0034 20.8329V11.7865C80.0034 11.4893 79.9443 11.195 79.8294 10.9205C79.7145 10.6459 79.5462 10.3964 79.3339 10.1863C79.1216 9.97617 78.8696 9.80948 78.5923 9.69576C78.315 9.58203 78.0178 9.5235 77.7176 9.5235ZM73.1473 18.5726C72.6953 18.5729 72.2532 18.4405 71.8771 18.1922C71.501 17.9439 71.2076 17.5909 71.0341 17.1776C70.8605 16.7644 70.8146 16.3095 70.902 15.8704C70.9894 15.4313 71.2064 15.0277 71.5254 14.7105C71.8443 14.3934 72.2511 14.177 72.6943 14.0886C73.1374 14.0002 73.5971 14.0438 74.0153 14.214C74.4334 14.3841 74.7913 14.673 75.0436 15.0443C75.296 15.4157 75.4315 15.8527 75.4331 16.3003V16.3164C75.4313 16.9154 75.1897 17.4893 74.7612 17.9122C74.3328 18.3351 73.7524 18.5726 73.1473 18.5726Z" fill="#00DE9C"/>
<path d="M89.7144 9.52234C88.7158 9.52206 87.7338 9.77529 86.8622 10.2578V7.26745C86.8696 6.96572 86.816 6.66557 86.7045 6.38466C86.593 6.10376 86.4259 5.84777 86.213 5.63177C86 5.41576 85.7456 5.24411 85.4647 5.12691C85.1837 5.00972 84.8819 4.94934 84.5771 4.94934C84.2722 4.94934 83.9704 5.00972 83.6895 5.12691C83.4085 5.24411 83.1541 5.41576 82.9412 5.63177C82.7283 5.84777 82.5611 6.10376 82.4496 6.38466C82.3381 6.66557 82.2845 6.96572 82.2919 7.26745V20.8331C82.2919 21.3153 82.4476 21.7849 82.7362 22.1734C83.0248 22.5618 83.4313 22.8488 83.8964 22.9923C84.3614 23.1359 84.8606 23.1285 85.3211 22.9713C85.7816 22.8141 86.1793 22.5153 86.4561 22.1185C87.4196 22.7539 88.5512 23.0935 89.7089 23.0947C93.1832 23.0947 96 20.0559 96 16.3085C96 12.5611 93.1886 9.52234 89.7144 9.52234ZM89.1507 18.5728C88.5558 18.5727 87.9843 18.3427 87.5579 17.9319C87.1316 17.5211 86.8839 16.9618 86.8676 16.373V16.2386C86.881 15.7943 87.0263 15.3638 87.2853 15.0008C87.5444 14.6378 87.9057 14.3584 88.3242 14.1976C88.7427 14.0367 89.1998 14.0015 89.6384 14.0963C90.077 14.1911 90.4777 14.4117 90.7904 14.7307C91.1031 15.0496 91.3139 15.4527 91.3965 15.8896C91.4791 16.3264 91.4299 16.7777 91.255 17.187C91.0801 17.5964 90.7872 17.9456 90.4129 18.1911C90.0387 18.4366 89.5997 18.5675 89.1507 18.5674V18.5728Z" fill="#00DE9C"/>
</svg>
